<svg width="24" height="24" viewBox="0 0 24 24" fill="none" xmlns="http://www.w3.org/2000/svg">
<path fill-rule="evenodd" clip-rule="evenodd" d="M12 2C9.23858 2 7 4.23858 7 7C7 9.41896 8.71776 11.4367 11 11.9V17C11 17.5523 11.4477 18 12 18C12.5523 18 13 17.5523 13 17V11.9C15.2822 11.4367 17 9.41896 17 7C17 4.23858 14.7614 2 12 2ZM15 7C15 8.65685 13.6569 10 12 10C10.3431 10 9 8.65685 9 7C9 5.34315 10.3431 4 12 4C13.6569 4 15 5.34315 15 7ZM4.38405 16.4681C5.50858 16.1453 6.95634 15.9996 8.3639 16C8.86598 16.0002 9.27288 16.448 9.27273 17.0003C9.27259 17.5526 8.86546 18.0002 8.36338 18C7.04367 17.9996 5.76416 18.1389 4.84323 18.4033C4.40015 18.5305 4.09654 18.6711 3.91742 18.7969C3.9779 18.8429 4.06787 18.9013 4.20034 18.9695C4.65429 19.2032 5.35111 19.4076 6.23194 19.5693C7.97568 19.8895 10.1915 20.0001 12 20C13.8085 19.9999 16.0243 19.8893 17.7681 19.5691C18.6489 19.4073 19.3457 19.2029 19.7996 18.9691C19.9388 18.8974 20.0311 18.8366 20.0915 18.7895C20.0408 18.7547 19.9693 18.7121 19.8694 18.6633C19.4719 18.469 18.8873 18.3181 18.2305 18.2111C17.5883 18.1065 16.9384 18.0532 16.4439 18.0265C16.198 18.0131 15.9936 18.0065 15.8516 18.0032C15.7807 18.0016 15.7255 18.0008 15.6888 18.0004L15.6478 18L15.6383 18L15.6362 18C15.1343 17.9999 14.7273 17.5523 14.7273 17.0001C14.7272 16.4478 15.135 16.0001 15.637 16C15.637 16 15.6363 16 15.6364 17L15.637 16L15.6383 16L15.6423 16L15.6562 16.0001L15.7065 16.0005C15.7496 16.0009 15.8116 16.0019 15.8899 16.0037C16.0462 16.0073 16.2679 16.0145 16.5334 16.0289C17.0616 16.0575 17.7753 16.1152 18.4968 16.2327C19.2036 16.3478 19.9826 16.53 20.6078 16.8357C21.16 17.1056 22 17.6804 22 18.7773C22 19.861 21.1779 20.4676 20.5706 20.7804C19.8917 21.13 19.0019 21.3701 18.0675 21.5418C16.1806 21.8883 13.851 21.9999 12 22C10.1491 22.0001 7.81947 21.8885 5.9326 21.542C4.99813 21.3704 4.10836 21.1304 3.42955 20.7809C2.82235 20.4682 2 19.8619 2 18.7782C2 18.0046 2.44798 17.4772 2.86621 17.1639C3.28814 16.8479 3.82834 16.6277 4.38405 16.4681ZM20.2073 18.8934C20.2073 18.8934 20.204 18.89 20.2005 18.8825C20.2041 18.8871 20.2069 18.892 20.2069 18.892L20.2073 18.8934ZM20.1959 18.6874C20.1979 18.6826 20.1996 18.6804 20.1996 18.6804L20.1993 18.6814C20.1993 18.6814 20.1977 18.6845 20.1959 18.6874ZM3.80034 18.6809C3.80034 18.6809 3.80204 18.6831 3.80405 18.6879C3.80111 18.6833 3.80034 18.6809 3.80034 18.6809ZM3.79148 18.9044C3.78862 18.9094 3.78635 18.9119 3.78635 18.9119C3.78635 18.9119 3.7875 18.9094 3.79148 18.9044Z" fill="black"/>
</svg>
