<svg width="40" height="40" viewBox="0 0 40 40" fill="none" xmlns="http://www.w3.org/2000/svg">
<path fill-rule="evenodd" clip-rule="evenodd" d="M28.8087 15.5882C29.1336 15.1416 29.0348 14.5162 28.5882 14.1913C28.1415 13.8665 27.5161 13.9652 27.1913 14.4119L23.4908 19.5001H22V15.6876V15.0001C22 14.4478 21.5523 14.0001 21 14.0001H18.7273C18.175 14.0001 17.7273 14.4478 17.7273 15.0001C17.7273 15.5524 18.175 16.0001 18.7273 16.0001H20V24.7495C19.6517 24.5998 19.2559 24.3793 18.8207 24.0779C17.9149 23.4507 16.9532 22.5529 16.0718 21.506C15.1916 20.4605 14.4137 19.2929 13.86 18.1416C13.3013 16.9799 13 15.8956 13 15.0001C13 14.4478 12.5523 14.0001 12 14.0001C11.4477 14.0001 11 14.4478 11 15.0001C11 16.3045 11.426 17.6952 12.0576 19.0085C12.6943 20.3323 13.5698 21.6396 14.5418 22.7941C15.5127 23.9472 16.6022 24.9744 17.6821 25.7222C18.7316 26.4489 19.8976 26.9993 20.9976 27.0001C20.9984 27.0001 20.9992 27.0001 21 27.0001C21.5523 27.0001 22 26.5524 22 26.0001V21.5001H23.4908L27.1913 26.5882C27.5161 27.0349 28.1415 27.1336 28.5882 26.8088C29.0348 26.484 29.1336 25.8586 28.8087 25.4119L25.2365 20.5001L28.8087 15.5882Z" fill="white"/>
<rect x="0.5" y="0.5" width="39" height="39" rx="4.5" stroke="white"/>
</svg>
