<svg width="30" height="30" viewBox="0 0 30 30" fill="none" xmlns="http://www.w3.org/2000/svg">
<path fill-rule="evenodd" clip-rule="evenodd" d="M5 5.62447C5 5.27975 5.27936 5 5.625 5H17.5C18.1904 5 18.75 5.55964 18.75 6.25V18.75H14.2467C13.5221 18.75 12.9348 19.3373 12.9348 20.0619V20.8152C12.9348 23.1264 11.0612 25 8.75 25C6.67893 25 5 23.3211 5 21.25V20V17.5V15.2857V5.62447ZM2.5 17.5V15.2857V5.62447C2.5 3.89812 3.89957 2.5 5.625 2.5H17.5C19.5711 2.5 21.25 4.17893 21.25 6.25V18.75H26.1881C26.9126 18.75 27.5 19.3373 27.5 20.0619C27.5 24.186 24.0917 27.5 20 27.5H8.75C5.34597 27.5 2.57754 24.7787 2.5016 21.3929H2.5V21.25V20V17.5ZM20 25H13.9632C14.799 23.9602 15.33 22.665 15.4209 21.25H20.625H21.25H24.852C24.308 23.3943 22.3295 25 20 25ZM8.75 13.75C8.05964 13.75 7.5 14.3096 7.5 15C7.5 15.6904 8.05964 16.25 8.75 16.25H15C15.6904 16.25 16.25 15.6904 16.25 15C16.25 14.3096 15.6904 13.75 15 13.75H8.75ZM7.5 10C7.5 9.30964 8.05964 8.75 8.75 8.75H15C15.6904 8.75 16.25 9.30964 16.25 10C16.25 10.6904 15.6904 11.25 15 11.25H8.75C8.05964 11.25 7.5 10.6904 7.5 10Z" fill="black"/>
</svg>
