<svg width="24" height="24" viewBox="0 0 24 24" fill="none" xmlns="http://www.w3.org/2000/svg">
<path fill-rule="evenodd" clip-rule="evenodd" d="M6.29791 4.19683L6.29858 4.19767L6.29791 4.19683ZM6.34092 4.26436L8.34545 7.4229C8.10322 7.65032 7.83901 7.87557 7.55466 8.118C7.31027 8.32636 7.051 8.54741 6.77803 8.79341C6.10146 9.40312 5.97078 10.3837 6.40865 11.1469C8.7241 15.1824 11.8822 17.0186 13.2953 17.6779C14.1466 18.0751 15.0716 17.7617 15.5865 17.1126L16.9736 15.364C16.9736 15.364 16.9748 15.3631 16.9769 15.3627C16.979 15.3623 16.9828 15.3627 16.9828 15.3627C16.9828 15.3627 16.9858 15.3634 16.9887 15.3652C17.797 15.8592 18.9247 16.5305 19.9605 17.0989C19.7745 18.2112 19.3471 18.8591 18.8759 19.2552C18.3812 19.6712 17.7413 19.8901 17.0277 19.9691C15.6028 20.1269 14.1563 19.6988 13.8354 19.5945C13.4814 19.4153 11.5406 18.4036 9.467 16.7641C7.32883 15.0735 5.18484 12.8204 4.36486 10.2363C3.7656 8.34782 3.99156 7.01888 4.46257 6.10221C4.9179 5.21604 5.65473 4.61458 6.34092 4.26436ZM5.61578 2.395C6.56043 1.95131 7.53722 2.41392 7.99221 3.13084L10.0892 6.43513C10.5132 7.10314 10.5422 8.07967 9.85303 8.74863C9.55766 9.03533 9.14671 9.3877 8.76429 9.71561C8.55438 9.8956 8.35307 10.0682 8.18419 10.2186C10.177 13.6549 12.8412 15.2448 14.053 15.8261L15.4019 14.1258C16.0387 13.323 17.1727 13.1353 18.0362 13.6631C18.835 14.1513 19.9394 14.8084 20.9402 15.3572C21.6076 15.7231 22.0851 16.486 21.9498 17.3473C21.7068 18.8943 21.0722 20.0211 20.1679 20.7814C19.2786 21.5289 18.2193 21.8461 17.249 21.9536C15.3403 22.1649 13.5148 21.5926 13.1814 21.482C13.097 21.454 13.027 21.4245 12.9517 21.3866C12.5938 21.2066 10.4847 20.1175 8.22168 18.3282C5.98216 16.5575 3.45652 13.9961 2.45452 10.8384C1.71849 8.51885 1.93622 6.63814 2.67919 5.19218C3.40913 3.77157 4.59122 2.87624 5.61578 2.395Z" fill="black"/>
<path fill-rule="evenodd" clip-rule="evenodd" d="M14.7105 2.09121C14.2077 1.86126 13.613 2.08108 13.3822 2.58221C13.1515 3.08333 13.372 3.67599 13.8749 3.90594C16.2013 4.9698 18.864 6.96993 20.0808 9.72996C20.3033 10.2348 20.8944 10.4642 21.4009 10.2424C21.9074 10.0207 22.1377 9.43165 21.9151 8.92685C20.4289 5.55547 17.2873 3.26957 14.7105 2.09121ZM13.9688 5.63303C13.474 5.38645 12.8722 5.58634 12.6248 6.0795C12.3774 6.57265 12.5779 7.17233 13.0728 7.4189C14.0142 7.88796 14.6657 8.32998 15.1917 8.85419C15.7177 9.3784 16.1613 10.0277 16.632 10.9658C16.8794 11.4589 17.4811 11.6588 17.976 11.4122C18.4709 11.1657 18.6715 10.566 18.424 10.0728C17.8929 9.01428 17.3347 8.16604 16.6085 7.44233C15.8822 6.71862 15.0311 6.1623 13.9688 5.63303Z" fill="black"/>
</svg>
