<svg width="30" height="30" viewBox="0 0 30 30" fill="none" xmlns="http://www.w3.org/2000/svg">
<path fill-rule="evenodd" clip-rule="evenodd" d="M5 6.25C5 5.55964 5.55964 5 6.25 5H23.75C24.4404 5 25 5.55964 25 6.25V23.75C25 24.4404 24.4404 25 23.75 25L22.5 25C22.5 21.5482 19.7018 18.75 16.25 18.75H13.75C10.2982 18.75 7.5 21.5482 7.5 25L6.25 25C5.55964 25 5 24.4404 5 23.75V6.25ZM10 25H20C20 22.9289 18.3211 21.25 16.25 21.25H13.75C11.6789 21.25 10 22.9289 10 25ZM6.25 2.5C4.17893 2.5 2.5 4.17893 2.5 6.25V23.75C2.5 25.8211 4.17893 27.5 6.25 27.5H23.75C25.8211 27.5 27.5 25.8211 27.5 23.75V6.25C27.5 4.17893 25.8211 2.5 23.75 2.5H6.25ZM12.5 12.5C12.5 13.8807 13.6193 15 15 15C16.3807 15 17.5 13.8807 17.5 12.5C17.5 11.1193 16.3807 10 15 10C13.6193 10 12.5 11.1193 12.5 12.5ZM15 7.5C12.2386 7.5 10 9.73858 10 12.5C10 15.2614 12.2386 17.5 15 17.5C17.7614 17.5 20 15.2614 20 12.5C20 9.73858 17.7614 7.5 15 7.5Z" fill="black"/>
</svg>
