<svg width="30" height="30" viewBox="0 0 30 30" fill="none" xmlns="http://www.w3.org/2000/svg">
<path fill-rule="evenodd" clip-rule="evenodd" d="M7.5 2.5H22.5C24.5711 2.5 26.25 4.17893 26.25 6.25V23.75C26.25 25.8211 24.5711 27.5 22.5 27.5H7.5C5.42893 27.5 3.75 25.8211 3.75 23.75V6.25C3.75 4.17893 5.42893 2.5 7.5 2.5ZM7.5 5C6.80964 5 6.25 5.55964 6.25 6.25V23.75C6.25 24.4404 6.80964 25 7.5 25H22.5C23.1904 25 23.75 24.4404 23.75 23.75V6.25C23.75 5.55964 23.1904 5 22.5 5H7.5ZM7.5 8.75C7.5 7.36929 8.61929 6.25 10 6.25H20C21.3807 6.25 22.5 7.36929 22.5 8.75V11.25C22.5 12.6307 21.3807 13.75 20 13.75H10C8.61929 13.75 7.5 12.6307 7.5 11.25V8.75ZM12.5 8.75H10V11.25H12.5H17.5H20V8.75H17.5H12.5ZM9.375 15C8.33947 15 7.5 15.8395 7.5 16.875C7.5 17.9105 8.33947 18.75 9.375 18.75C10.4105 18.75 11.25 17.9105 11.25 16.875C11.25 15.8395 10.4105 15 9.375 15ZM13.125 16.875C13.125 15.8395 13.9645 15 15 15C16.0355 15 16.875 15.8395 16.875 16.875C16.875 17.9105 16.0355 18.75 15 18.75C13.9645 18.75 13.125 17.9105 13.125 16.875ZM20.625 15C19.5895 15 18.75 15.8395 18.75 16.875V21.875C18.75 22.9105 19.5895 23.75 20.625 23.75C21.6605 23.75 22.5 22.9105 22.5 21.875V16.875C22.5 15.8395 21.6605 15 20.625 15ZM7.5 21.875C7.5 20.8395 8.33947 20 9.375 20C10.4105 20 11.25 20.8395 11.25 21.875C11.25 22.9105 10.4105 23.75 9.375 23.75C8.33947 23.75 7.5 22.9105 7.5 21.875ZM15 20C13.9645 20 13.125 20.8395 13.125 21.875C13.125 22.9105 13.9645 23.75 15 23.75C16.0355 23.75 16.875 22.9105 16.875 21.875C16.875 20.8395 16.0355 20 15 20Z" fill="black"/>
</svg>
