<svg width="30" height="30" viewBox="0 0 30 30" fill="none" xmlns="http://www.w3.org/2000/svg">
<path fill-rule="evenodd" clip-rule="evenodd" d="M11.875 2.5C11.3169 2.5 10.8265 2.86997 10.6731 3.4066L9.72262 6.73339L6.42681 6.26256C5.86729 6.18263 5.32375 6.4881 5.10111 7.0076L3.22611 11.3826C3.02476 11.8524 3.12973 12.3975 3.49115 12.7589L5.73227 15L3.49115 17.2411C3.09256 17.6397 3.01006 18.2558 3.28973 18.7452L5.78973 23.1202C6.04933 23.5745 6.56441 23.819 7.08053 23.733L9.72972 23.2915L10.6731 26.5934C10.8265 27.13 11.3169 27.5 11.875 27.5H18.125C18.6831 27.5 19.1736 27.13 19.3269 26.5934L20.2704 23.2915L22.9195 23.733C23.4357 23.819 23.9507 23.5745 24.2103 23.1202L26.7103 18.7452C26.99 18.2558 26.9075 17.6397 26.5089 17.2411L24.2678 15L26.5089 12.7589C26.8703 12.3975 26.9753 11.8524 26.774 11.3826L24.899 7.0076C24.6763 6.4881 24.1328 6.18263 23.5733 6.26256L20.2775 6.73339L19.3269 3.4066C19.1736 2.86997 18.6831 2.5 18.125 2.5H11.875ZM11.8269 8.4684L12.8179 5H17.1822L18.1731 8.4684C18.3447 9.06904 18.9334 9.45078 19.5518 9.36244L22.9785 8.87291L24.1427 11.5895L21.6162 14.1161C21.128 14.6043 21.128 15.3957 21.6162 15.8839L24.066 18.3338L22.4717 21.1239L19.5805 20.642C18.9534 20.5375 18.3478 20.9203 18.1731 21.5316L17.1822 25H12.8179L11.8269 21.5316C11.6523 20.9203 11.0466 20.5375 10.4195 20.642L7.52836 21.1239L5.93403 18.3338L8.38392 15.8839C8.87207 15.3957 8.87207 14.6043 8.38392 14.1161L5.85734 11.5895L7.0216 8.87291L10.4483 9.36244C11.0667 9.45078 11.6553 9.06904 11.8269 8.4684ZM15 17.5C13.6193 17.5 12.5 16.3807 12.5 15C12.5 13.6193 13.6193 12.5 15 12.5C16.3807 12.5 17.5 13.6193 17.5 15C17.5 16.3807 16.3807 17.5 15 17.5ZM10 15C10 12.2386 12.2386 10 15 10C17.7615 10 20 12.2386 20 15C20 17.7614 17.7615 20 15 20C12.2386 20 10 17.7614 10 15Z" fill="black"/>
</svg>
