<svg width="30" height="30" viewBox="0 0 30 30" fill="none" xmlns="http://www.w3.org/2000/svg">
<path fill-rule="evenodd" clip-rule="evenodd" d="M2.5 6.11842C2.5 4.81038 3.61929 3.75 5 3.75H10H16.25H17.5H25C25.6904 3.75 26.25 4.28019 26.25 4.93421C26.25 5.58823 25.6904 6.11842 25 6.11842H23.7748L24.8819 11.3626C25.0829 11.5124 25.2609 11.6925 25.4078 11.8986L27.0721 14.2346C27.351 14.626 27.5 15.0874 27.5 15.5596V21.5132C27.5 22.8212 26.3807 23.8816 25 23.8816H24.579C23.8768 25.2819 22.3702 26.25 20.625 26.25C18.8798 26.25 17.3732 25.2819 16.671 23.8816H16.25H12.079C11.3768 25.2819 9.87025 26.25 8.125 26.25C6.31408 26.25 4.76015 25.2077 4.09521 23.7217C3.16172 23.3782 2.5 22.5189 2.5 21.5132V6.11842ZM17.5 6.11842H21.2498C21.2498 6.195 21.2578 6.27271 21.2743 6.35066L22.2252 10.8553H17.5V6.11842ZM15 6.11842H10L9.99956 6.11842H5V14.4079H15V6.11842ZM15 16.7763H5V19.2045C5.79407 18.4369 6.90082 17.9605 8.125 17.9605C10.329 17.9605 12.1524 19.5046 12.4557 21.5132H15V16.7763ZM17.5 19.2045C18.2941 18.4369 19.4008 17.9605 20.625 17.9605C22.829 17.9605 24.6524 19.5046 24.9557 21.5132H25V15.5596L23.3356 13.2237H17.5V19.2045ZM18.75 22.1053C18.75 21.1242 19.5895 20.3289 20.625 20.3289C21.6605 20.3289 22.5 21.1242 22.5 22.1053C22.5 23.0863 21.6605 23.8816 20.625 23.8816C19.5895 23.8816 18.75 23.0863 18.75 22.1053ZM8.125 20.3289C7.08947 20.3289 6.25 21.1242 6.25 22.1053C6.25 23.0863 7.08947 23.8816 8.125 23.8816C9.16053 23.8816 10 23.0863 10 22.1053C10 21.1242 9.16053 20.3289 8.125 20.3289Z" fill="black"/>
</svg>
