<svg width="30" height="30" viewBox="0 0 30 30" fill="none" xmlns="http://www.w3.org/2000/svg">
<path fill-rule="evenodd" clip-rule="evenodd" d="M15 2.5C9.03827 2.5 5.53377 6.94424 5.05623 11.444C3.57044 11.9426 2.5 13.3463 2.5 15V17.5C2.5 19.5711 4.17893 21.25 6.25 21.25C8.32107 21.25 10 19.5711 10 17.5V15C10 13.5217 9.14456 12.2431 7.90168 11.6324C8.23184 8.4052 10.4143 5 15 5C19.5857 5 21.7682 8.4052 22.0983 11.6324C20.8554 12.2431 20 13.5217 20 15V17.5C20 18.6106 20.4828 19.6085 21.25 20.2951V22.0255C21.25 23.6683 19.9183 25 18.2755 25H17.5C16.8096 25 16.25 25.5596 16.25 26.25C16.25 26.9404 16.8096 27.5 17.5 27.5H18.2755C21.299 27.5 23.75 25.049 23.75 22.0255V21.25C25.8211 21.25 27.5 19.5711 27.5 17.5V15C27.5 13.3463 26.4296 11.9426 24.9438 11.444C24.4662 6.94424 20.9617 2.5 15 2.5ZM7.5 15C7.5 14.3096 6.94036 13.75 6.25 13.75C5.55964 13.75 5 14.3096 5 15V17.5C5 18.1904 5.55964 18.75 6.25 18.75C6.94036 18.75 7.5 18.1904 7.5 17.5V15ZM23.75 13.75C24.4404 13.75 25 14.3096 25 15V17.5C25 18.1904 24.4404 18.75 23.75 18.75C23.0596 18.75 22.5 18.1904 22.5 17.5V15C22.5 14.3096 23.0596 13.75 23.75 13.75Z" fill="black"/>
</svg>
