<svg width="40" height="40" viewBox="0 0 40 40" fill="none" xmlns="http://www.w3.org/2000/svg">
<path fill-rule="evenodd" clip-rule="evenodd" d="M13.5481 14.4007C14.8871 14.1924 16.9504 14 20 14C23.0496 14 25.1129 14.1924 26.4519 14.4007C27.3571 14.5416 28 15.3358 28 16.4721V23.5279C28 24.6642 27.3571 25.4584 26.4519 25.5993C25.1129 25.8076 23.0496 26 20 26C16.9504 26 14.8871 25.8076 13.5481 25.5993C12.6429 25.4584 12 24.6642 12 23.5279V16.4721C12 15.3358 12.6429 14.5416 13.5481 14.4007ZM20 12C16.8689 12 14.7005 12.1974 13.2406 12.4245C11.1516 12.7495 10 14.5783 10 16.4721V23.5279C10 25.4217 11.1516 27.2505 13.2406 27.5755C14.7005 27.8026 16.8689 28 20 28C23.1311 28 25.2995 27.8026 26.7594 27.5755C28.8484 27.2505 30 25.4217 30 23.5279V16.4721C30 14.5783 28.8484 12.7495 26.7594 12.4245C25.2995 12.1974 23.1311 12 20 12ZM18.5281 17.1183C18.8533 16.9443 19.2478 16.9634 19.5547 17.168L22.5547 19.168C22.8329 19.3534 23 19.6656 23 20C23 20.3344 22.8329 20.6466 22.5547 20.8321L19.5547 22.8321C19.2478 23.0366 18.8533 23.0557 18.5281 22.8817C18.203 22.7077 18 22.3688 18 22V18C18 17.6312 18.203 17.2923 18.5281 17.1183Z" fill="white"/>
<rect x="0.5" y="0.5" width="39" height="39" rx="4.5" stroke="white"/>
</svg>
